<svg width="442" height="297" viewBox="0 0 442 297" fill="none" xmlns="http://www.w3.org/2000/svg">
<path d="M228.263 292.787L436.078 180.199C437.576 179.42 438.837 178.253 439.729 176.82C440.622 175.387 441.113 173.741 441.151 172.053C441.19 170.365 440.774 168.698 439.947 167.226C439.121 165.754 437.914 164.531 436.453 163.685L234.994 43.2561C233.452 42.3412 231.698 41.8468 229.905 41.8224C228.113 41.7981 226.346 42.2446 224.78 43.1173L4.9467 166.224C3.45096 167.032 2.20148 168.229 1.33063 169.689C0.459779 171.148 0 172.816 0 174.516C0 176.216 0.459779 177.884 1.33063 179.344C2.20148 180.804 3.45096 182.001 4.9467 182.808L200.966 292.593C205.133 294.916 209.819 296.152 214.59 296.186C219.361 296.219 224.063 295.051 228.263 292.787V292.787Z" fill="#00275E"/>
<path d="M193.084 125.563C193.084 125.563 151.049 148.003 141.099 201.543C141.099 201.543 182.037 210.216 236.853 164.878" fill="#EB773A"/>
<path d="M192.556 132.391C192.556 132.391 174.627 148.475 169.575 159.827C164.524 171.179 157.932 187.79 157.932 187.79C157.932 187.79 189.503 190.482 219.187 172.317C248.871 154.151 220.575 120.179 192.556 132.391Z" fill="#FFAE46"/>
<path d="M210.375 126.743C209.293 128.561 190.822 138.969 187.366 153.984L193.389 149.419C193.389 149.419 183.147 163.768 178.804 172.025C178.804 172.025 203.783 162.075 203.006 162.672L195.942 168.028C195.942 168.028 214.941 167.626 227.861 156.08C240.781 144.534 223.017 124.398 223.017 124.398L210.375 126.743Z" fill="#FAD374"/>
<path d="M266.121 126.604C266.121 126.604 262.86 147.767 255.879 152.971C248.899 158.175 226.237 175.425 226.237 175.425L222.476 170.457C222.476 170.457 238.102 142.605 240.864 130.31C243.625 118.014 266.121 126.604 266.121 126.604Z" fill="#68E1FD"/>
<path opacity="0.61" d="M266.121 126.604C266.121 126.604 262.86 147.767 255.879 152.971C248.899 158.175 226.237 175.425 226.237 175.425L222.476 170.457C222.476 170.457 238.102 142.605 240.864 130.31C243.625 118.014 266.121 126.604 266.121 126.604Z" fill="#363636"/>
<path d="M243.556 96.8232C243.556 96.8232 222.296 94.2419 215.329 99.5987C208.363 104.955 185.687 122.052 185.687 122.052L189.448 127.021C189.448 127.021 220.492 119.513 233.079 120.193C245.665 120.873 243.556 96.8232 243.556 96.8232Z" fill="#68E1FD"/>
<path opacity="0.61" d="M243.556 96.8232C243.556 96.8232 222.296 94.2419 215.329 99.5987C208.363 104.955 185.687 122.052 185.687 122.052L189.448 127.021C189.448 127.021 220.492 119.513 233.079 120.193C245.665 120.873 243.556 96.8232 243.556 96.8232Z" fill="#363636"/>
<path d="M345.625 61.2968C351.245 52.5174 355.783 43.091 359.142 33.2226C359.142 33.2226 346.791 33.3614 328.333 38.8569C329.805 48.252 337.312 55.7458 345.625 61.2968Z" fill="#68E1FD"/>
<path d="M296.113 99.4382C301.977 94.9949 302.638 85.9899 297.588 79.3251C292.538 72.6603 283.691 70.8595 277.826 75.3028C271.962 79.7462 271.301 88.7511 276.351 95.416C281.4 102.081 290.248 103.882 296.113 99.4382Z" fill="#68E1FD"/>
<path d="M402.273 0C402.273 0 285.979 28.9206 226.889 114.545C226.889 114.545 213.012 129.352 219.714 137.581C226.417 145.811 248.76 139.26 248.76 139.26C248.76 139.26 322.186 118.416 402.273 0Z" fill="#68E1FD"/>
<path d="M226.889 114.545C226.889 114.545 212.234 112.768 207.461 116.418C202.687 120.068 187.033 131.892 187.033 131.892L189.628 135.319C189.628 135.319 211.027 130.143 219.687 130.615C228.346 131.087 226.889 114.545 226.889 114.545Z" fill="#68E1FD"/>
<path d="M244.541 137.845C244.541 137.845 242.293 152.43 237.478 156.066C232.662 159.702 217.05 171.539 217.05 171.539L214.469 168.153C214.469 168.153 225.238 148.961 227.139 140.482C229.04 132.003 244.541 137.845 244.541 137.845Z" fill="#68E1FD"/>
<path opacity="0.29" d="M226.889 114.545C226.889 114.545 212.234 112.768 207.461 116.418C202.687 120.068 187.033 131.892 187.033 131.892L189.628 135.319C189.628 135.319 211.027 130.143 219.687 130.615C228.346 131.087 226.889 114.545 226.889 114.545Z" fill="#363636"/>
<path opacity="0.29" d="M244.541 137.845C244.541 137.845 242.293 152.43 237.478 156.066C232.662 159.702 217.05 171.539 217.05 171.539L214.469 168.153C214.469 168.153 225.238 148.961 227.139 140.482C229.04 132.003 244.541 137.845 244.541 137.845Z" fill="#363636"/>
<path d="M345.778 20.8578C345.778 20.8578 345.375 40.5222 366.191 47.8079L354.118 61.5188C354.118 61.5188 327.973 46.8226 332.025 27.519L345.778 20.8578Z" fill="#68E1FD"/>
<path d="M271.103 66.4454C271.103 66.4454 271.339 99.7513 302.396 109.23L279.332 124.994C279.332 124.994 246.026 113.434 252.202 83.8061L271.103 66.4454Z" fill="#68E1FD"/>
<path d="M327.24 61.6435C329.305 60.079 329.711 57.1369 328.146 55.0721C326.582 53.0073 323.64 52.6017 321.575 54.1661C319.51 55.7306 319.105 58.6727 320.669 60.7375C322.234 62.8023 325.176 63.2079 327.24 61.6435Z" fill="#68E1FD"/>
<path d="M310.207 86.2124C315.615 82.1565 316.711 74.4845 312.655 69.0765C308.599 63.6686 300.927 62.5726 295.519 66.6285C290.111 70.6845 289.015 78.3565 293.071 83.7644C297.127 89.1724 304.799 90.2684 310.207 86.2124Z" fill="#68E1FD"/>
<path opacity="0.61" d="M345.778 20.8578C345.778 20.8578 345.375 40.5222 366.191 47.8079L354.118 61.5188C354.118 61.5188 327.973 46.8226 332.025 27.519L345.778 20.8578Z" fill="#606060"/>
<path opacity="0.61" d="M271.103 66.4454C271.103 66.4454 271.339 99.7513 302.396 109.23L279.332 124.994C279.332 124.994 246.026 113.434 252.202 83.8061L271.103 66.4454Z" fill="#606060"/>
<path opacity="0.61" d="M327.24 61.6435C329.305 60.079 329.711 57.1369 328.146 55.0721C326.582 53.0073 323.64 52.6017 321.575 54.1661C319.51 55.7306 319.105 58.6727 320.669 60.7375C322.234 62.8023 325.176 63.2079 327.24 61.6435Z" fill="#606060"/>
<path opacity="0.61" d="M310.207 86.2124C315.615 82.1565 316.711 74.4845 312.655 69.0765C308.599 63.6686 300.927 62.5726 295.519 66.6285C290.111 70.6845 289.015 78.3565 293.071 83.7644C297.127 89.1724 304.799 90.2684 310.207 86.2124Z" fill="#606060"/>
<path d="M368.092 147.24C367.724 147.24 367.371 147.386 367.111 147.646C366.851 147.907 366.705 148.26 366.705 148.628C366.705 148.996 366.851 149.349 367.111 149.609C367.371 149.869 367.724 150.015 368.092 150.015C368.46 150.015 368.813 149.869 369.074 149.609C369.334 149.349 369.48 148.996 369.48 148.628C369.48 148.26 369.334 147.907 369.074 147.646C368.813 147.386 368.46 147.24 368.092 147.24Z" fill="white"/>
<path d="M297.789 202.514V203.402C297.789 203.77 297.935 204.123 298.196 204.383C298.456 204.644 298.809 204.79 299.177 204.79C299.545 204.79 299.898 204.644 300.158 204.383C300.418 204.123 300.565 203.77 300.565 203.402V202.514C300.565 202.146 300.418 201.793 300.158 201.533C299.898 201.272 299.545 201.126 299.177 201.126C298.809 201.126 298.456 201.272 298.196 201.533C297.935 201.793 297.789 202.146 297.789 202.514Z" fill="white"/>
<path d="M200.591 224.607V225.495C200.591 225.863 200.738 226.216 200.998 226.476C201.258 226.737 201.611 226.883 201.979 226.883C202.347 226.883 202.7 226.737 202.96 226.476C203.221 226.216 203.367 225.863 203.367 225.495V224.607C203.367 224.239 203.221 223.886 202.96 223.626C202.7 223.365 202.347 223.219 201.979 223.219C201.611 223.219 201.258 223.365 200.998 223.626C200.738 223.886 200.591 224.239 200.591 224.607Z" fill="white"/>
<path d="M291.225 156.954C290.857 156.954 290.504 157.1 290.244 157.361C289.984 157.621 289.837 157.974 289.837 158.342C289.837 158.71 289.984 159.063 290.244 159.323C290.504 159.584 290.857 159.73 291.225 159.73C291.593 159.73 291.946 159.584 292.206 159.323C292.467 159.063 292.613 158.71 292.613 158.342C292.613 157.974 292.467 157.621 292.206 157.361C291.946 157.1 291.593 156.954 291.225 156.954Z" fill="white"/>
<path d="M125.112 154.276C124.744 154.276 124.391 154.422 124.131 154.682C123.87 154.943 123.724 155.296 123.724 155.664C123.724 156.032 123.87 156.385 124.131 156.645C124.391 156.905 124.744 157.051 125.112 157.051C125.48 157.051 125.833 156.905 126.093 156.645C126.353 156.385 126.5 156.032 126.5 155.664C126.5 155.296 126.353 154.943 126.093 154.682C125.833 154.422 125.48 154.276 125.112 154.276Z" fill="white"/>
<path d="M62.7464 158.342V159.23C62.7464 159.598 62.8926 159.951 63.1528 160.211C63.4131 160.472 63.7661 160.618 64.1341 160.618C64.5022 160.618 64.8551 160.472 65.1154 160.211C65.3757 159.951 65.5219 159.598 65.5219 159.23V158.342C65.5219 157.974 65.3757 157.621 65.1154 157.361C64.8551 157.1 64.5022 156.954 64.1341 156.954C63.7661 156.954 63.4131 157.1 63.1528 157.361C62.8926 157.621 62.7464 157.974 62.7464 158.342Z" fill="white"/>
<path d="M92.4165 202.014C92.0484 202.014 91.6955 202.161 91.4352 202.421C91.175 202.681 91.0287 203.034 91.0287 203.402C91.0287 203.77 91.175 204.123 91.4352 204.383C91.6955 204.644 92.0484 204.79 92.4165 204.79C92.7845 204.79 93.1375 204.644 93.3978 204.383C93.658 204.123 93.8042 203.77 93.8042 203.402C93.8042 203.034 93.658 202.681 93.3978 202.421C93.1375 202.161 92.7845 202.014 92.4165 202.014Z" fill="white"/>
<path d="M138.365 123.371C137.997 123.371 137.644 123.517 137.383 123.777C137.123 124.037 136.977 124.39 136.977 124.759C136.977 125.127 137.123 125.48 137.383 125.74C137.644 126 137.997 126.146 138.365 126.146C138.733 126.146 139.086 126 139.346 125.74C139.606 125.48 139.752 125.127 139.752 124.759C139.752 124.39 139.606 124.037 139.346 123.777C139.086 123.517 138.733 123.371 138.365 123.371Z" fill="white"/>
<path d="M206.392 79.1987C206.024 79.1987 205.671 79.3449 205.411 79.6052C205.151 79.8654 205.004 80.2184 205.004 80.5865C205.004 80.9545 205.151 81.3075 205.411 81.5677C205.671 81.828 206.024 81.9742 206.392 81.9742C206.76 81.9742 207.113 81.828 207.373 81.5677C207.634 81.3075 207.78 80.9545 207.78 80.5865C207.78 80.2184 207.634 79.8654 207.373 79.6052C207.113 79.3449 206.76 79.1987 206.392 79.1987Z" fill="white"/>
<path d="M247.928 252.376C247.559 252.376 247.207 252.522 246.946 252.782C246.686 253.043 246.54 253.396 246.54 253.764C246.54 254.132 246.686 254.485 246.946 254.745C247.207 255.005 247.559 255.151 247.928 255.151C248.296 255.151 248.649 255.005 248.909 254.745C249.169 254.485 249.315 254.132 249.315 253.764C249.315 253.396 249.169 253.043 248.909 252.782C248.649 252.522 248.296 252.376 247.928 252.376Z" fill="white"/>
<path d="M339.81 174.37C330.887 174.37 330.859 188.248 339.81 188.248C348.761 188.248 348.761 174.37 339.81 174.37Z" fill="#FFAE46"/>
<path d="M90.654 166.419C81.7308 166.419 81.7031 180.296 90.654 180.296C99.605 180.296 99.5911 166.419 90.654 166.419Z" fill="#FFAE46"/>
<path d="M223.67 257.691C222.368 256.39 220.604 255.659 218.764 255.659C216.924 255.659 215.159 256.39 213.858 257.691C212.582 259.011 211.858 260.768 211.832 262.603V263.492C211.852 265.328 212.578 267.087 213.858 268.404C215.159 269.705 216.924 270.436 218.764 270.436C220.604 270.436 222.368 269.705 223.67 268.404C224.945 267.084 225.67 265.327 225.696 263.492V262.603C225.675 260.767 224.95 259.008 223.67 257.691V257.691Z" fill="#00AEE1"/>
<path d="M96.7185 72.0379C113.427 72.0379 126.971 58.4933 126.971 41.785C126.971 25.0768 113.427 11.5322 96.7185 11.5322C80.0103 11.5322 66.4656 25.0768 66.4656 41.785C66.4656 58.4933 80.0103 72.0379 96.7185 72.0379Z" fill="#68E1FD"/>
<path d="M121.323 25.146C124.515 24.2657 127.76 23.589 131.037 23.1199C132.683 22.8701 134.342 22.7126 136.006 22.648C137.732 22.5511 139.465 22.6536 141.168 22.9533C142.153 23.1202 143.096 23.4785 143.943 24.008C144.454 24.3445 144.889 24.7841 145.22 25.2986C145.568 25.8597 145.768 26.4992 145.803 27.1582C145.815 28.2478 145.563 29.324 145.068 30.2945C144.675 31.1199 144.21 31.9093 143.68 32.6537C141.576 35.356 139.142 37.7849 136.436 39.8839C131.241 44.0192 125.723 47.7317 119.935 50.9858C114.209 54.2965 108.312 57.3028 102.269 59.9923C96.225 62.727 90.0195 65.0905 83.6875 67.0698C80.4969 68.0885 77.2542 68.9362 73.9732 69.6094C70.6113 70.3473 67.1959 70.816 63.7594 71.011C61.9989 71.1013 60.2339 71.0316 58.486 70.8029C56.6166 70.5911 54.7962 70.0657 53.1015 69.2486C52.1704 68.8006 51.3176 68.2055 50.5758 67.4862C49.7434 66.6629 49.1447 65.6332 48.8411 64.5025C48.5731 63.4226 48.5731 62.2935 48.8411 61.2136C49.0694 60.2747 49.4193 59.3696 49.8819 58.5213C51.711 55.568 54.0622 52.9723 56.8207 50.861C59.3682 48.7512 62.0938 46.866 64.9668 45.2267C62.5864 47.4253 60.3169 49.7411 58.1668 52.1654C56.0161 54.459 54.2327 57.071 52.8795 59.9091C52.3345 60.9911 52.2061 62.2357 52.5187 63.4062C52.6977 63.8408 52.9842 64.2228 53.3513 64.5164C53.8262 64.886 54.3491 65.1895 54.9056 65.4184C57.6663 66.3335 60.5979 66.6134 63.4819 66.2372C69.7674 65.5064 75.9528 64.0823 81.925 61.9907C88.0311 60.0201 93.9846 57.5499 99.9658 55.0519C111.801 49.9817 123.129 43.8017 133.799 36.5949C136.362 34.8241 138.73 32.7866 140.863 30.5166C141.336 29.985 141.763 29.414 142.139 28.8096C142.435 28.3453 142.633 27.8261 142.722 27.2831C142.735 27.098 142.698 26.913 142.615 26.7471C142.532 26.5812 142.406 26.4404 142.25 26.3394C141.726 25.9581 141.139 25.6716 140.516 25.4929C137.446 24.7549 134.288 24.4558 131.135 24.6048C127.846 24.6186 124.584 24.8129 121.323 25.146Z" fill="#8CC63F"/>
</svg>
